<?xml version="1.0" encoding="UTF-8"?>
<svg xmlns="http://www.w3.org/2000/svg" viewBox="0 0 256 256" role="img" aria-label="Jmall">
  <defs>
    <linearGradient id="jmall-app-bag-fill" x1="0" y1="0" x2="1" y2="1">
      <stop offset="0" stop-color="#FF6B81"/>
      <stop offset="1" stop-color="#FF4D63"/>
    </linearGradient>
  </defs>
  <g transform="matrix(.9 0 0 .9 13 14)" shape-rendering="geometricPrecision">
    <path d="M89 84V69c0-20 16-35 39-35s39 15 39 35v15" fill="none" stroke="#C65776" stroke-width="14" stroke-linecap="round" stroke-linejoin="round"/>
    <path d="M82 70h92c18 0 32 14 32 32v72c0 26-19 46-44 46H94c-25 0-44-20-44-46v-72c0-18 14-32 32-32Z" fill="url(#jmall-app-bag-fill)"/>
    <ellipse cx="105" cy="122" rx="6" ry="10" fill="#342B4A"/>
    <ellipse cx="151" cy="122" rx="6" ry="10" fill="#342B4A"/>
    <path d="M118 153c4 7 16 7 20 0" fill="none" stroke="#342B4A" stroke-width="4" stroke-linecap="round"/>
    <ellipse cx="77" cy="152" rx="12" ry="5.5" fill="#FFA3B2"/>
    <ellipse cx="179" cy="152" rx="12" ry="5.5" fill="#FFA3B2"/>
    <path d="M181 167l4 11 11 4-11 4-4 11-4-11-11-4 11-4Z" fill="#FFD75E"/>
  </g>
</svg>
